<svg class="animated" id="freepik_stories-social-networking" xmlns="http://www.w3.org/2000/svg" viewBox="0 0 500 500" version="1.1" xmlns:xlink="http://www.w3.org/1999/xlink" xmlns:svgjs="http://svgjs.com/svgjs"><style>svg#freepik_stories-social-networking:not(.animated) .animable {opacity: 0;}svg#freepik_stories-social-networking.animated #freepik--Like--inject-42 {animation: 1.5s Infinite  linear floating;animation-delay: 0s;}svg#freepik_stories-social-networking.animated #freepik--love-text--inject-42 {animation: 1.5s Infinite  linear floating;animation-delay: 0s;}            @keyframes floating {                0% {                    opacity: 1;                    transform: translateY(0px);                }                50% {                    transform: translateY(-10px);                }                100% {                    opacity: 1;                    transform: translateY(0px);                }            }        </style><g id="freepik--background-complete--inject-42" class="animable" style="transform-origin: 250px 226.935px;"><rect y="382.4" width="500" height="0.25" style="fill: rgb(235, 235, 235); transform-origin: 250px 382.525px;" id="elj37pxcn9jzq" class="animable"></rect><rect x="393.11" y="398.62" width="16.56" height="0.25" style="fill: rgb(235, 235, 235); transform-origin: 401.39px 398.745px;" id="ellzyp45xfxx" class="animable"></rect><rect x="329.19" y="394.99" width="37.81" height="0.25" style="fill: rgb(235, 235, 235); transform-origin: 348.095px 395.115px;" id="elcm7ll2ckwga" class="animable"></rect><rect x="265" y="389.21" width="69.08" height="0.25" style="fill: rgb(235, 235, 235); transform-origin: 299.54px 389.335px;" id="el5l2ywkqbaaq" class="animable"></rect><rect x="52.46" y="390.89" width="12.69" height="0.25" style="fill: rgb(235, 235, 235); transform-origin: 58.805px 391.015px;" id="el16aei9ntar6" class="animable"></rect><rect x="74.06" y="390.89" width="36.83" height="0.25" style="fill: rgb(235, 235, 235); transform-origin: 92.475px 391.015px;" id="elnuxuubza5m" class="animable"></rect><rect x="152.33" y="395.11" width="59.53" height="0.25" style="fill: rgb(235, 235, 235); transform-origin: 182.095px 395.235px;" id="elud8a3if8khe" class="animable"></rect><path d="M237,337.8H43.91a5.71,5.71,0,0,1-5.7-5.71V60.66A5.71,5.71,0,0,1,43.91,55H237a5.71,5.71,0,0,1,5.71,5.71V332.09A5.71,5.71,0,0,1,237,337.8ZM43.91,55.2a5.46,5.46,0,0,0-5.45,5.46V332.09a5.46,5.46,0,0,0,5.45,5.46H237a5.47,5.47,0,0,0,5.46-5.46V60.66A5.47,5.47,0,0,0,237,55.2Z" style="fill: rgb(235, 235, 235); transform-origin: 140.46px 196.4px;" id="elojo9urzcjqm" class="animable"></path><path d="M453.31,337.8H260.21a5.72,5.72,0,0,1-5.71-5.71V60.66A5.72,5.72,0,0,1,260.21,55h193.1A5.71,5.71,0,0,1,459,60.66V332.09A5.71,5.71,0,0,1,453.31,337.8ZM260.21,55.2a5.47,5.47,0,0,0-5.46,5.46V332.09a5.47,5.47,0,0,0,5.46,5.46h193.1a5.47,5.47,0,0,0,5.46-5.46V60.66a5.47,5.47,0,0,0-5.46-5.46Z" style="fill: rgb(235, 235, 235); transform-origin: 356.75px 196.4px;" id="el7ahec5iq8un" class="animable"></path><g id="elq8cz128l24"><rect x="59.08" y="300.54" width="44.84" height="81.86" style="fill: rgb(230, 230, 230); transform-origin: 81.5px 341.47px; transform: rotate(180deg);" class="animable" id="elx5qbwoh7vs"></rect></g><polygon points="63.59 382.4 59.08 382.4 59.08 372.16 68.32 372.16 63.59 382.4" style="fill: rgb(240, 240, 240); transform-origin: 63.7px 377.28px;" id="elg8f829kuodl" class="animable"></polygon><g id="ell6b25s8bkv"><rect x="184.75" y="300.54" width="44.84" height="81.86" style="fill: rgb(230, 230, 230); transform-origin: 207.17px 341.47px; transform: rotate(180deg);" class="animable" id="eliikz4l8khsl"></rect></g><g id="eltj9617090pn"><rect x="59.08" y="300.54" width="129.61" height="78.23" style="fill: rgb(240, 240, 240); transform-origin: 123.885px 339.655px; transform: rotate(180deg);" class="animable" id="elkb1mkzxnt4"></rect></g><polygon points="184.18 382.4 188.69 382.4 188.69 372.16 179.45 372.16 184.18 382.4" style="fill: rgb(240, 240, 240); transform-origin: 184.07px 377.28px;" id="eldvpfgqe6gq6" class="animable"></polygon><g id="elybgmd2mltjt"><rect x="62.58" y="305.43" width="122.61" height="31.57" style="fill: rgb(230, 230, 230); transform-origin: 123.885px 321.215px; transform: rotate(180deg);" class="animable" id="el9hrv8rs0m7b"></rect></g><path d="M115.71,315.24h16.35c7.11,0,13.9-3.89,18.78-10.77H96.93C101.82,311.35,108.61,315.24,115.71,315.24Z" style="fill: rgb(240, 240, 240); transform-origin: 123.885px 309.855px;" id="ely0p2gckhw4l" class="animable"></path><g id="elubm0sy56nad"><rect x="62.58" y="342.1" width="122.61" height="31.57" style="fill: rgb(230, 230, 230); transform-origin: 123.885px 357.885px; transform: rotate(180deg);" class="animable" id="elbcqpde95lch"></rect></g><path d="M115.71,351.91h16.35c7.11,0,13.9-3.89,18.78-10.77H96.93C101.82,348,108.61,351.91,115.71,351.91Z" style="fill: rgb(240, 240, 240); transform-origin: 123.885px 346.525px;" id="elc406lwzw047" class="animable"></path><g id="ell4ymjdj7jfd"><rect x="94.94" y="81.98" width="319.24" height="118.26" style="fill: rgb(230, 230, 230); transform-origin: 254.56px 141.11px; transform: rotate(180deg);" class="animable" id="eljm1krh5s09"></rect></g><path d="M80.5,77.38H422.9a1.34,1.34,0,0,1,1.34,1.34h0a1.34,1.34,0,0,1-1.34,1.34H80.5a1.33,1.33,0,0,1-1.33-1.34h0A1.33,1.33,0,0,1,80.5,77.38Z" style="fill: rgb(230, 230, 230); transform-origin: 251.705px 78.72px;" id="elhpr96bw5hbr" class="animable"></path><g id="elwbs04zaqj5m"><rect x="89.22" y="81.98" width="322.29" height="118.26" style="fill: rgb(240, 240, 240); transform-origin: 250.365px 141.11px; transform: rotate(180deg);" class="animable" id="el8khcp3z0nu5"></rect></g><polygon points="94.94 200.25 414.18 200.25 414.18 204.03 91 204.03 94.94 200.25" style="fill: rgb(230, 230, 230); transform-origin: 252.59px 202.14px;" id="el4truyenuby4" class="animable"></polygon><polygon points="79.7 200.25 401.99 200.25 398.05 204.03 75.76 204.03 79.7 200.25" style="fill: rgb(240, 240, 240); transform-origin: 238.875px 202.14px;" id="elvjv15i75dpq" class="animable"></polygon><g id="ell1c9p0plmgn"><rect x="199.24" y="-12.03" width="102.26" height="306.28" style="fill: rgb(250, 250, 250); transform-origin: 250.37px 141.11px; transform: rotate(90deg);" class="animable" id="ellvvv3wqleh"></rect></g><polygon points="360.83 192.24 343.94 89.99 321.77 89.99 338.65 192.24 360.83 192.24" style="fill: rgb(255, 255, 255); transform-origin: 341.3px 141.115px;" id="eln0gpr9gxlpr" class="animable"></polygon><polygon points="196.16 192.24 179.27 89.99 157.1 89.99 173.99 192.24 196.16 192.24" style="fill: rgb(255, 255, 255); transform-origin: 176.63px 141.115px;" id="el6ixvfsq2qc5" class="animable"></polygon><polygon points="333.89 192.24 317 89.99 308.36 89.99 325.25 192.24 333.89 192.24" style="fill: rgb(255, 255, 255); transform-origin: 321.125px 141.115px;" id="elccd74397xeh" class="animable"></polygon><g id="eliyt5a52b3f"><rect x="46.61" y="140.61" width="102.26" height="1.02" style="fill: rgb(230, 230, 230); transform-origin: 97.74px 141.12px; transform: rotate(90deg);" class="animable" id="eltwn11ms9sms"></rect></g><g id="elebnba0g7uxp"><g style="opacity: 0.4; transform-origin: 368.385px 160.495px;" class="animable" id="elg103vclew6c"><g id="elzn4wf4kd7gf"><rect x="384.65" y="74.99" width="32.53" height="171.01" style="fill: rgb(240, 240, 240); transform-origin: 400.915px 160.495px; transform: rotate(180deg);" class="animable" id="eltcdpmtswcb"></rect></g><g id="ely2sz50asskd"><rect x="398.05" y="74.99" width="10.73" height="171.01" style="fill: rgb(230, 230, 230); transform-origin: 403.415px 160.495px; transform: rotate(180deg);" class="animable" id="elds0ulolpym9"></rect></g><g id="elanv65tax9e"><rect x="352.12" y="74.99" width="32.53" height="171.01" style="fill: rgb(240, 240, 240); transform-origin: 368.385px 160.495px; transform: rotate(180deg);" class="animable" id="eldfswz45rga"></rect></g><g id="elwitaoot3onf"><rect x="384.27" y="74.99" width="10.73" height="171.01" style="fill: rgb(230, 230, 230); transform-origin: 389.635px 160.495px; transform: rotate(180deg);" class="animable" id="el48nvrzvb9m2"></rect></g><g id="el53z7tzp009a"><rect x="319.59" y="74.99" width="32.53" height="171.01" style="fill: rgb(240, 240, 240); transform-origin: 335.855px 160.495px; transform: rotate(180deg);" class="animable" id="elq9oobxx5cj9"></rect></g></g></g><g id="elqh8oh8wi7h9"><g style="opacity: 0.4; transform-origin: 98.385px 160.495px;" class="animable" id="el4fr6v5dcdff"><g id="el2m71zwc0pvb"><rect x="102.35" y="74.99" width="7.94" height="171.01" style="fill: rgb(240, 240, 240); transform-origin: 106.32px 160.495px; transform: rotate(180deg);" class="animable" id="elqcioi0ppmos"></rect></g><g id="elk1p3r6mi2zh"><rect x="99.26" y="74.99" width="6.18" height="171.01" style="fill: rgb(230, 230, 230); transform-origin: 102.35px 160.495px; transform: rotate(180deg);" class="animable" id="el201rulkx4pv"></rect></g><g id="el2ylji0gcrw7"><rect x="94.41" y="74.99" width="7.94" height="171.01" style="fill: rgb(240, 240, 240); transform-origin: 98.38px 160.495px; transform: rotate(180deg);" class="animable" id="elcw7ij7o06mr"></rect></g><g id="el918re0axjxi"><rect x="91.32" y="74.99" width="6.18" height="171.01" style="fill: rgb(230, 230, 230); transform-origin: 94.41px 160.495px; transform: rotate(180deg);" class="animable" id="elxg5gab54j"></rect></g><g id="el9myzsjf3vhb"><rect x="86.48" y="74.99" width="7.94" height="171.01" style="fill: rgb(240, 240, 240); transform-origin: 90.45px 160.495px; transform: rotate(180deg);" class="animable" id="el8e9ljj4n1fq"></rect></g></g></g><g id="els9wj9ca701"><rect x="394.99" y="272.33" width="44.21" height="7.2" style="fill: rgb(230, 230, 230); transform-origin: 417.095px 275.93px; transform: rotate(180deg);" class="animable" id="el5fgmp7whag7"></rect></g><g id="el7rnwje22xrr"><rect x="394.99" y="279.53" width="38.72" height="94.29" style="fill: rgb(235, 235, 235); transform-origin: 414.35px 326.675px; transform: rotate(180deg);" class="animable" id="el9m9blts8dy"></rect></g><rect x="273.18" y="279.53" width="121.81" height="94.29" style="fill: rgb(245, 245, 245); transform-origin: 334.085px 326.675px;" id="elvu6ff9beywb" class="animable"></rect><path d="M386.58,363.85h-105V289.51h105Zm-103.94-1h102.9V290.55H282.64Z" style="fill: rgb(235, 235, 235); transform-origin: 334.08px 326.68px;" id="elgm09uoilsva" class="animable"></path><path d="M369.67,302.25a4.17,4.17,0,1,0,4.17-4.16A4.17,4.17,0,0,0,369.67,302.25Z" style="fill: rgb(235, 235, 235); transform-origin: 373.84px 302.26px;" id="elp8zyxvpoxnm" class="animable"></path><rect x="273.18" y="279.53" width="160.53" height="1.67" style="fill: rgb(224, 224, 224); transform-origin: 353.445px 280.365px;" id="elqat7ohg2xo" class="animable"></rect><rect x="267.69" y="272.33" width="127.3" height="7.2" style="fill: rgb(240, 240, 240); transform-origin: 331.34px 275.93px;" id="el6geoy30ogdg" class="animable"></rect><polygon points="433.71 373.82 433.71 382.4 418.34 373.82 433.71 373.82" style="fill: rgb(235, 235, 235); transform-origin: 426.025px 378.11px;" id="elieah3sikkt" class="animable"></polygon><polygon points="394.99 373.82 394.99 382.4 379.62 373.82 394.99 373.82" style="fill: rgb(245, 245, 245); transform-origin: 387.305px 378.11px;" id="elp4mzyjd4l" class="animable"></polygon><polygon points="273.18 373.82 273.18 382.4 288.56 373.82 273.18 373.82" style="fill: rgb(245, 245, 245); transform-origin: 280.87px 378.11px;" id="elzwwhu162ujl" class="animable"></polygon><polygon points="394.99 373.82 394.99 382.4 410.37 373.82 394.99 373.82" style="fill: rgb(235, 235, 235); transform-origin: 402.68px 378.11px;" id="el9dvfovga7wc" class="animable"></polygon><polygon points="311.9 373.82 311.9 382.4 327.28 373.82 311.9 373.82" style="fill: rgb(235, 235, 235); transform-origin: 319.59px 378.11px;" id="el8e4scafqcch" class="animable"></polygon><polygon points="311.9 373.82 311.9 382.4 296.53 373.82 311.9 373.82" style="fill: rgb(235, 235, 235); transform-origin: 304.215px 378.11px;" id="el6igpla49o95" class="animable"></polygon><g id="el18ubdb75tr5"><rect x="379.89" y="231.98" width="10.41" height="40.36" style="fill: rgb(230, 230, 230); transform-origin: 385.095px 252.16px; transform: rotate(180deg);" class="animable" id="ely473eipz138"></rect></g><polygon points="351.65 272.33 386.22 272.33 391.44 225.1 356.87 225.1 351.65 272.33" style="fill: rgb(224, 224, 224); transform-origin: 371.545px 248.715px;" id="elnaiq6vvyk9o" class="animable"></polygon><polygon points="347.91 272.33 383.61 272.33 388.83 225.1 353.13 225.1 347.91 272.33" style="fill: rgb(230, 230, 230); transform-origin: 368.37px 248.715px;" id="elrl8mj1bl0u" class="animable"></polygon><polygon points="381.03 268.61 385.43 228.82 355.71 228.82 351.31 268.61 381.03 268.61" style="fill: rgb(255, 255, 255); transform-origin: 368.37px 248.715px;" id="el7e6s5tdmmq" class="animable"></polygon></g><g id="freepik--Shadow--inject-42" class="animable" style="transform-origin: 250px 416.24px;"><ellipse id="freepik--path--inject-42" cx="250" cy="416.24" rx="193.89" ry="11.32" style="fill: rgb(245, 245, 245); transform-origin: 250px 416.24px;" class="animable"></ellipse></g><g id="freepik--Like--inject-42" class="animable" style="transform-origin: 255.575px 274.514px;"><path d="M101,304.76a22.16,22.16,0,0,1,22.15-22.16h1.67A22,22,0,0,1,103,262.73c-1.28-13.22,9.14-24.08,22.41-24.08h10.67l77.31-7.16a12.18,12.18,0,0,0,11-13.71c-1.33-10.08-2.64-22.52-3-34.3-.77-26,16.4-58,40.32-46.52,9.69,4.65,3.87,36.88,8.52,49.64,4.1,11.26,39.19,41.88,56,67.25a40.7,40.7,0,0,0,18.16,15.09V387l-7.93,7.93a66.69,66.69,0,0,1-47.16,19.54H149.67c-11.26,0-21.09-8.24-22.4-19.42a22,22,0,0,1,21.82-24.54H133.43c-11.26,0-21.09-8.23-22.4-19.41a22,22,0,0,1,21.83-24.54h-10A21.8,21.8,0,0,1,101,304.76Z" style="fill: #610094; transform-origin: 222.695px 274.514px;" id="el6htr5xiv6fu" class="animable"></path><g id="el7ii2fr5esfn"><path d="M101,304.76a22.16,22.16,0,0,1,22.15-22.16h1.67A22,22,0,0,1,103,262.73c-1.28-13.22,9.14-24.08,22.41-24.08h10.67l77.31-7.16a12.18,12.18,0,0,0,11-13.71c-1.33-10.08-2.64-22.52-3-34.3-.77-26,16.4-58,40.32-46.52,9.69,4.65,3.87,36.88,8.52,49.64,4.1,11.26,39.19,41.88,56,67.25a40.7,40.7,0,0,0,18.16,15.09V387l-7.93,7.93a66.69,66.69,0,0,1-47.16,19.54H149.67c-11.26,0-21.09-8.24-22.4-19.42a22,22,0,0,1,21.82-24.54H133.43c-11.26,0-21.09-8.23-22.4-19.41a22,22,0,0,1,21.83-24.54h-10A21.8,21.8,0,0,1,101,304.76Z" style="fill: rgb(255, 255, 255); opacity: 0.6; transform-origin: 222.695px 274.514px;" class="animable" id="elmhnxxxi9wj"></path></g><rect x="409" y="309.41" width="1.15" height="5.5" style="fill: #610094; transform-origin: 409.575px 312.16px;" id="eljworpyju1rp" class="animable"></rect><rect x="409" y="291.83" width="1.15" height="13.17" style="fill: #610094; transform-origin: 409.575px 298.415px;" id="elu6j4hzr68i" class="animable"></rect><g id="elwxz7il2lxpj"><rect x="335.82" y="247.75" width="70.31" height="166.7" rx="12.53" style="fill: #610094; transform-origin: 370.975px 331.1px; transform: rotate(180deg);" class="animable" id="elpihxkag171k"></rect></g><g id="el6zghknnf56"><path d="M223.56,223.86a12.19,12.19,0,0,1-10.21,7.64l-32,3c-2.56,2.17-4.51,4.15-5.82,5.44-5.42,5.41-19,27,4.76,50.84C195.73,306.25,226.27,238.56,223.56,223.86Z" style="opacity: 0.1; transform-origin: 195.232px 258.461px;" class="animable" id="elnutknzfrin8"></path></g></g><g id="freepik--Character--inject-42" class="animable" style="transform-origin: 192.76px 238.18px;"><path d="M187.55,170.13l-2.85,12.05c-.93,4-1.88,8-2.73,12-.21,1-.42,2-.61,3l-.24,1.3c-.07.4-.1.82-.15,1.25a28.19,28.19,0,0,0,.19,5.46,69.08,69.08,0,0,0,2.63,11.52L180,218.63a44.6,44.6,0,0,1-5.44-12.07,30.32,30.32,0,0,1-1.12-6.94c0-.61,0-1.24,0-1.87s.1-1.31.17-1.79c.13-1.07.28-2.13.43-3.19.63-4.21,1.41-8.34,2.28-12.46s1.78-8.19,2.84-12.27Z" style="fill: rgb(127, 62, 59); transform-origin: 180.495px 193.335px;" id="elsepdj3vmqw" class="animable"></path><path d="M184.91,158c-6.24,1.88-9.4,15.63-9.4,15.63L188,176.47s4.29-5.42,4.13-11C192,160.56,189.83,156.53,184.91,158Z" style="fill: #610094; transform-origin: 183.822px 167.082px;" id="elkwzsk5l2uu" class="animable"></path><g id="eloakmz7j5ulo"><path d="M185.57,169.43a24.41,24.41,0,0,0-1.52,6.15l3.3.74Z" style="opacity: 0.2; transform-origin: 185.7px 172.875px;" class="animable" id="elhppv8wfww7d"></path></g><path d="M184.91,158s-4,1.58,6,51l34.4-1.33c-1.12-14-1.46-22.6,4.12-51.59a101.52,101.52,0,0,0-14.68-1.36,109,109,0,0,0-15.62.6C192.45,156.17,184.91,158,184.91,158Z" style="fill: #610094; transform-origin: 206.775px 181.83px;" id="elqp9tmgzksls" class="animable"></path><g id="eltcmzvbqkrlj"><path d="M228.59,160.53a13.67,13.67,0,0,0-6.78,6.75c-1.61,3.82,2.65,11.58,3.67,13.32C226.08,175.19,227.08,168.75,228.59,160.53Z" style="opacity: 0.2; transform-origin: 225.02px 170.565px;" class="animable" id="el891psfg7rlh"></path></g><path d="M221.25,151.38a12.29,12.29,0,0,1-4.37,1.83,9.44,9.44,0,0,0,.36-6.77c0,1.37-1.17,4.71-3.51,7.42a48.4,48.4,0,0,1-16.59,0h0c-2.46-2.47-3.86-5.54-4-6.86a9.22,9.22,0,0,0,.56,5.83,7.18,7.18,0,0,1-3.29-2.49c-3.84-5.88,1.05-9.27-.64-13.53s-5.84-18.4,5.42-19.36c2.83-6,18-6.42,23.68,1.4,6.14,8.43.7,16,2.57,19.67C223.51,142.55,225.37,148,221.25,151.38Z" style="fill: rgb(38, 50, 56); transform-origin: 205.659px 133.769px;" id="ellm8u6amv5jg" class="animable"></path><path d="M200.85,171.91c-5.61,0-7.92-2.37-8.86-4.36-1.79-3.78.24-8.38,2.27-11.59a.14.14,0,0,1,.19,0,.15.15,0,0,1,.05.2c-2,3.14-4,7.65-2.25,11.3.91,1.92,3.14,4.2,8.6,4.2l1,0c5.07-.23,9.1-1.95,12-5.1a17.72,17.72,0,0,0,4.22-11.69.14.14,0,0,1,.14-.14h0a.15.15,0,0,1,.15.14,18.09,18.09,0,0,1-4.29,11.88c-2.92,3.22-7,5-12.17,5.19Z" style="fill: rgb(255, 255, 255); transform-origin: 204.831px 163.335px;" id="elc6zrii3ju8e" class="animable"></path><path d="M212.61,139.05c-.8,5.07-1.5,12.43,2.15,15.65,0,0,.68,13-13,13.61s-2.59-13-2.59-13c5.55-1.56,5.32-3.82,4.19-7.69Z" style="fill: rgb(127, 62, 59); transform-origin: 204.846px 153.69px;" id="eldrcl7bh3xta" class="animable"></path><g id="eln88792uw87s"><path d="M208.82,142.55l-5.48,5.06a16.88,16.88,0,0,1,.59,2.75c2.09.17,5-1.42,5.56-3.72C209.94,144.89,209.56,142.85,208.82,142.55Z" style="opacity: 0.2; transform-origin: 206.512px 146.461px;" class="animable" id="elckwi1lloxn5"></path></g><path d="M215,127.45c.69,8.38,1.16,11.91-2.42,16.78-5.39,7.33-15.84,6.34-19-1.67-2.86-7.21-3.5-19.71,4.15-24.19A11.48,11.48,0,0,1,215,127.45Z" style="fill: rgb(127, 62, 59); transform-origin: 203.541px 132.988px;" id="elclwv0q7081" class="animable"></path><path d="M202.11,131.56c.09.68-.19,1.28-.63,1.34s-.88-.43-1-1.11.19-1.27.63-1.34S202,130.89,202.11,131.56Z" style="fill: rgb(38, 50, 56); transform-origin: 201.29px 131.674px;" id="elew28ozm42yj" class="animable"></path><path d="M194.46,132.67c.1.67-.18,1.27-.63,1.34s-.88-.44-1-1.11.18-1.28.62-1.34S194.36,132,194.46,132.67Z" style="fill: rgb(38, 50, 56); transform-origin: 193.642px 132.786px;" id="el9gyjvp4o2i" class="animable"></path><path d="M193.68,131.57l-1.69-.24S193,132.48,193.68,131.57Z" style="fill: rgb(38, 50, 56); transform-origin: 192.835px 131.625px;" id="elgsbh81hlud8" class="animable"></path><path d="M197,133.55a18.34,18.34,0,0,1-1.79,4.66,2.93,2.93,0,0,0,2.48.11Z" style="fill: rgb(99, 15, 15); transform-origin: 196.45px 136.047px;" id="el60rvw11hbsx" class="animable"></path><path d="M201.75,140.43a5.64,5.64,0,0,1-1,.22.2.2,0,0,1-.23-.17.19.19,0,0,1,.17-.22,5.48,5.48,0,0,0,4.07-2.73.2.2,0,0,1,.26-.1.2.2,0,0,1,.1.27A5.6,5.6,0,0,1,201.75,140.43Z" style="fill: rgb(38, 50, 56); transform-origin: 202.829px 139.033px;" id="elazsoyo6m2xh" class="animable"></path><path d="M207.05,125.21c-.54,4,2.62,9.34,7.38,10.63-1.36-1.05-.07-5.09,1.42-7.26C218.16,125.21,207.64,120.85,207.05,125.21Z" style="fill: rgb(38, 50, 56); transform-origin: 211.585px 129.609px;" id="eljouxqph9zg8" class="animable"></path><path d="M190.82,122.52c2.36,3.31,13.12,5.56,17.47,3.25-1.71.17-7.35-4.56-7.75-7.17C199.91,114.57,188.25,118.94,190.82,122.52Z" style="fill: rgb(38, 50, 56); transform-origin: 199.37px 121.852px;" id="el7wksrqxuddv" class="animable"></path><path d="M199.26,121.93c3.61,5,12.77,9.45,18.69,8.44-4.4-1.84-1.35-7.79-3.45-11.16C211.23,114,193.24,113.67,199.26,121.93Z" style="fill: rgb(38, 50, 56); transform-origin: 207.993px 122.996px;" id="elclkpsfl1wy7" class="animable"></path><path d="M217.41,132.75a6.18,6.18,0,0,1-2.08,4.21c-1.63,1.41-3.36.17-3.68-1.85-.27-1.82.24-4.74,2.24-5.37A2.77,2.77,0,0,1,217.41,132.75Z" style="fill: rgb(127, 62, 59); transform-origin: 214.508px 133.597px;" id="el0s86jefftx" class="animable"></path><path d="M204.43,129.12a.39.39,0,0,1-.46-.07c-1.3-1.33-3.67-1-3.69-1a.39.39,0,0,1-.46-.33.4.4,0,0,1,.33-.46c.11,0,2.8-.44,4.39,1.18a.41.41,0,0,1,0,.57A.23.23,0,0,1,204.43,129.12Z" style="fill: rgb(38, 50, 56); transform-origin: 202.235px 128.186px;" id="eliolkxdkz1pj" class="animable"></path><path d="M190.74,129.36a.4.4,0,0,1-.41-.66,4,4,0,0,1,3.4-1.35.39.39,0,0,1,.33.46.4.4,0,0,1-.46.33,3.2,3.2,0,0,0-2.68,1.1A.36.36,0,0,1,190.74,129.36Z" style="fill: rgb(38, 50, 56); transform-origin: 192.141px 128.355px;" id="elpg63ms7aehb" class="animable"></path><polygon points="208.1 317.2 202.5 323.56 185.97 312.62 191.57 306.26 208.1 317.2" style="fill: rgb(127, 62, 59); transform-origin: 197.035px 314.91px;" id="eltae6m2dm2n" class="animable"></polygon><path d="M201.43,323.68l3.65-8.8a.69.69,0,0,1,.8-.4l7.37,1.89a1.35,1.35,0,0,1,.87,1.83c-1.32,3-2.12,4.45-3.72,8.31-1,2.38-2.19,7.51-3.55,10.8s-4.69,2.11-4.41.62a22,22,0,0,0-1.07-12.74A2.23,2.23,0,0,1,201.43,323.68Z" style="fill: rgb(38, 50, 56); transform-origin: 207.748px 326.939px;" id="elmgfjwjtkw3" class="animable"></path><g id="eln38d7xfedh"><g style="opacity: 0.2; transform-origin: 193.27px 312.485px;" class="animable" id="ely1gd71nuwpt"><polygon points="191.58 306.26 185.97 312.63 195.18 318.71 200.57 312.21 191.58 306.26" id="el0oveltn2ms7o" class="animable" style="transform-origin: 193.27px 312.485px;"></polygon></g></g><path d="M191.68,208.63s-39,25.67-42,48c-3.58,26.56,42,61.83,42,61.83l7.64-8.67s-30.19-24-28.86-47.66c9.11-19.46,53.05-35.9,43.21-54.52Z" style="fill: rgb(38, 50, 56); transform-origin: 182.288px 263.035px;" id="elwn4rs4sd2y" class="animable"></path><polygon points="200.65 309.23 191.17 319.98 186.78 318.15 197.36 304.99 200.65 309.23" style="fill: #610094; transform-origin: 193.715px 312.485px;" id="elskspuqps61" class="animable"></polygon><path d="M200.75,328.2l-.09.05a1.15,1.15,0,0,1-1.11-.1.7.7,0,0,1-.37-.59c0-1.08,2.49-2.82,2.78-3a.2.2,0,0,1,.22,0,.21.21,0,0,1,.09.2C202.09,325.82,201.67,327.67,200.75,328.2Zm1-3c-1,.72-2.22,1.82-2.2,2.39a.3.3,0,0,0,.17.25.75.75,0,0,0,.74.08C201,327.64,201.49,326.63,201.78,325.16Z" style="fill: #610094; transform-origin: 200.726px 326.438px;" id="elw9n2k3ngu6" class="animable"></path><path d="M201.93,325c-.91.53-2.83,1.07-3.56.58a.69.69,0,0,1-.26-.84,1,1,0,0,1,.57-.68c1.11-.54,3.37.38,3.47.42a.22.22,0,0,1,.12.16.21.21,0,0,1-.08.19Zm-3.12-.55a.63.63,0,0,0-.31.4c-.07.25,0,.34.09.4.5.33,2.13,0,3-.53a4.6,4.6,0,0,0-2.77-.3Z" style="fill: #610094; transform-origin: 200.165px 324.831px;" id="el0srrw206lv0a" class="animable"></path><g id="elbfxq2tlexmw"><path d="M195.87,220.73l-9.38,23.91c-5.76,4.69-11,9.47-14.3,14.45a18.45,18.45,0,0,1-.52-5C171.92,245.19,184.66,226.47,195.87,220.73Z" style="opacity: 0.2; transform-origin: 183.765px 239.91px;" class="animable" id="eluzj2635wne"></path></g><polygon points="196.76 348.33 188.28 348.27 185.69 328.63 194.16 328.69 196.76 348.33" style="fill: rgb(127, 62, 59); transform-origin: 191.225px 338.48px;" id="elp2sim7rd5ic" class="animable"></polygon><path d="M187.65,348.8l8.31-4.63a.68.68,0,0,1,.88.17l4.61,6.06a1.37,1.37,0,0,1-.45,2c-2.93,1.56-4.42,2.17-8.08,4.21-2.25,1.25-6.38,4.53-9.49,6.26s-5-1.25-3.84-2.25a22,22,0,0,0,7.07-10.66A2.21,2.21,0,0,1,187.65,348.8Z" style="fill: rgb(38, 50, 56); transform-origin: 190.477px 353.738px;" id="elevqj7kuf8v8" class="animable"></path><g id="elo5vgluwcec"><g style="opacity: 0.2; transform-origin: 190.635px 334.105px;" class="animable" id="elj1ond2dhfc"><polygon points="194.17 328.69 185.69 328.63 187.14 339.58 195.58 339.37 194.17 328.69" id="eljlzymwdm7pl" class="animable" style="transform-origin: 190.635px 334.105px;"></polygon></g></g><path d="M200,208.63s-26.41,33.07-26.66,55.64c-.29,26.8,11.64,72.52,11.64,72.52l11.56.07s-.33-46-1.91-69.67c6.65-20.44,40.52-40.92,30.68-59.54Z" style="fill: rgb(38, 50, 56); transform-origin: 200.212px 272.255px;" id="elq5ehleh2kna" class="animable"></path><polygon points="197.88 337.48 183.54 337.38 182.04 332.86 198.92 332.22 197.88 337.48" style="fill: #610094; transform-origin: 190.48px 334.85px;" id="elurhatf5ivre" class="animable"></polygon><path d="M184.3,351.92l-.1,0a1.1,1.1,0,0,1-.8-.77.66.66,0,0,1,.07-.68c.64-.87,3.7-.67,4.05-.65a.19.19,0,0,1,.17.14.19.19,0,0,1-.05.21C186.83,350.89,185.35,352.07,184.3,351.92Zm2.7-1.74c-1.22-.05-2.87.05-3.21.51a.29.29,0,0,0,0,.3.73.73,0,0,0,.53.52C184.87,351.66,185.86,351.15,187,350.18Z" style="fill: #610094; transform-origin: 185.52px 350.86px;" id="elcwg654z1lco" class="animable"></path><path d="M187.19,350.18c-1-.15-2.88-.92-3.15-1.76a.7.7,0,0,1,.32-.82,1.07,1.07,0,0,1,.87-.18c1.2.27,2.4,2.39,2.45,2.48a.23.23,0,0,1,0,.2.2.2,0,0,1-.18.1Zm-2.11-2.38a.67.67,0,0,0-.49.13c-.21.15-.2.27-.17.37.18.56,1.69,1.29,2.71,1.46-.44-.68-1.27-1.79-2-1.95Z" style="fill: #610094; transform-origin: 185.855px 348.797px;" id="elblnoi7d2274" class="animable"></path><path d="M201.33,130.46l-1.69-.23S200.65,131.38,201.33,130.46Z" style="fill: rgb(38, 50, 56); transform-origin: 200.485px 130.523px;" id="elayj8aohesq5" class="animable"></path><path d="M181.31,213.55l6.37,2.49-4.12,5.08a6.46,6.46,0,0,1-4.42-4.12Z" style="fill: rgb(127, 62, 59); transform-origin: 183.41px 217.335px;" id="el1lgo0ebjzao" class="animable"></path><polygon points="189.81 218.77 187.63 224.42 183.56 221.12 187.68 216.04 189.81 218.77" style="fill: rgb(127, 62, 59); transform-origin: 186.685px 220.23px;" id="eljoc05gf6eda" class="animable"></polygon><path d="M225.76,205.62l1,3c.13.24-.15.49-.55.51l-35.4,1.36c-.31,0-.57-.13-.6-.32l-.43-3.07c0-.21.24-.4.58-.42l34.83-1.34A.64.64,0,0,1,225.76,205.62Z" style="fill: rgb(255, 255, 255); transform-origin: 208.286px 207.914px;" id="el3mzmla54kvr" class="animable"></path><path d="M221.12,209.7l.93,0c.18,0,.32-.11.3-.23l-.59-4c0-.12-.18-.2-.37-.2l-.93,0c-.19,0-.32.11-.31.22l.6,4C220.76,209.61,220.93,209.7,221.12,209.7Z" style="fill: #610094; transform-origin: 221.251px 207.485px;" id="elvf9mgruv41j" class="animable"></path><path d="M193.45,210.76l.93,0c.19,0,.32-.11.31-.23l-.59-4c0-.12-.19-.21-.37-.2l-.94,0c-.18,0-.32.11-.3.23l.59,4C193.1,210.68,193.26,210.77,193.45,210.76Z" style="fill: #610094; transform-origin: 193.589px 208.545px;" id="el364lsbgt4hk" class="animable"></path><path d="M207.22,210.23l.94,0c.18,0,.32-.11.3-.23l-.59-4c0-.12-.18-.21-.37-.2l-.93,0c-.19,0-.32.11-.31.23l.59,4C206.87,210.15,207,210.24,207.22,210.23Z" style="fill: #610094; transform-origin: 207.361px 208.015px;" id="elc23igdgbf5m" class="animable"></path><path d="M172.43,218.54l-10,7.23a.76.76,0,0,0,.39,1.39l47.9-.41a2.34,2.34,0,0,0,1.62-.69l7.2-7.1a.77.77,0,0,0-.51-1.35Z" style="fill: #610094; transform-origin: 190.949px 222.385px;" id="eli3pl6dbeojg" class="animable"></path><g id="el1l0xbvdhwq8"><path d="M172.43,218.54l-10,7.23a.76.76,0,0,0,.39,1.39l47.9-.41a2.34,2.34,0,0,0,1.62-.69l7.2-7.1a.77.77,0,0,0-.51-1.35Z" style="fill: rgb(255, 255, 255); opacity: 0.4; transform-origin: 190.949px 222.385px;" class="animable" id="elget5n2huu1m"></path></g><g id="elwgxo5fx4jib"><path d="M172.43,218.54l-10,7.23a.76.76,0,0,0,.39,1.39l47.9-.41a2.34,2.34,0,0,0,1.62-.69l7.2-7.1a.77.77,0,0,0-.51-1.35Z" style="opacity: 0.2; transform-origin: 190.949px 222.385px;" class="animable" id="elfz8n5a1dc6r"></path></g><path d="M216.91,214.9l-7.36-.22,5.35,6.76s4.1-1.14,4.9-4.57Z" style="fill: rgb(127, 62, 59); transform-origin: 214.675px 218.06px;" id="elfbjdwf3khx" class="animable"></path><polygon points="203.8 218.9 208.59 224.31 214.9 221.44 209.55 214.68 203.8 218.9" style="fill: rgb(127, 62, 59); transform-origin: 209.35px 219.495px;" id="elas3hnbadj7h" class="animable"></polygon><path d="M154.66,194.17l49.8-.52a1.38,1.38,0,0,1,1.32,1.06l5.86,29.9a.88.88,0,0,1-.89,1.09l-49.8.52a1.39,1.39,0,0,1-1.32-1.07l-5.86-29.9A.87.87,0,0,1,154.66,194.17Z" style="fill: #610094; transform-origin: 182.705px 209.935px;" id="elai24i44l86" class="animable"></path><g id="eltg95klgaxnk"><path d="M154.66,194.17l49.8-.52a1.38,1.38,0,0,1,1.32,1.06l5.86,29.9a.88.88,0,0,1-.89,1.09l-49.8.52a1.39,1.39,0,0,1-1.32-1.07l-5.86-29.9A.87.87,0,0,1,154.66,194.17Z" style="fill: rgb(255, 255, 255); opacity: 0.4; transform-origin: 182.705px 209.935px;" class="animable" id="elunpxba3ph5"></path></g><g id="elj97doxe559"><path d="M205.78,194.71l5.86,29.9a.88.88,0,0,1-.89,1.09l-6.29-32A1.38,1.38,0,0,1,205.78,194.71Z" style="opacity: 0.2; transform-origin: 208.063px 209.7px;" class="animable" id="el8tbbjl0q0hj"></path></g><path d="M231.45,164.22c.27.74.45,1.29.64,1.91s.35,1.21.51,1.82c.31,1.2.6,2.41.84,3.62.47,2.42.8,4.85,1.05,7.29a72.34,72.34,0,0,1,.3,7.36c0,1.22-.07,2.45-.13,3.67l-.15,1.84-.07.91-.14,1.1a27.06,27.06,0,0,1-2.58,7.61,49.85,49.85,0,0,1-3.8,6.39c-1.4,2-2.87,3.89-4.41,5.73s-3.14,3.57-4.92,5.27l-3.23-2.82c1.24-1.85,2.52-3.77,3.69-5.7s2.33-3.87,3.35-5.85a54.85,54.85,0,0,0,2.73-5.92,21.6,21.6,0,0,0,1.46-5.69l0-.63v-2.48c0-1.1,0-2.2-.09-3.29-.1-2.2-.32-4.39-.57-6.56s-.66-4.34-1.11-6.48c-.21-1.07-.46-2.13-.73-3.17l-.42-1.55c-.13-.49-.31-1-.42-1.41Z" style="fill: rgb(127, 62, 59); transform-origin: 225.077px 191.48px;" id="elzrwfainqcg" class="animable"></path><path d="M229.44,156.06c6.83,1.51,6.6,17.86,6.6,17.86l-14.46,1.15s-2.42-10-.46-14.28S225.67,155.22,229.44,156.06Z" style="fill: #610094; transform-origin: 228.197px 165.444px;" id="elnm65a5v6hs9" class="animable"></path></g><g id="freepik--love-text--inject-42" class="animable" style="transform-origin: 146.695px 170.08px;"><path d="M159.27,159.11H134.12a2.84,2.84,0,0,0-2.83,2.84V174a2.84,2.84,0,0,0,2.83,2.84H154l4.21,4.21v-4.21h1.05A2.84,2.84,0,0,0,162.1,174V162A2.84,2.84,0,0,0,159.27,159.11Z" style="fill: #610094; transform-origin: 146.695px 170.08px;" id="el13pgpqqlombo" class="animable"></path><path d="M151,164.16a3,3,0,0,0-4.27,0,3,3,0,0,0-4.28,4.28l4.28,4.28,4.27-4.28A3,3,0,0,0,151,164.16Z" style="fill: rgb(255, 255, 255); transform-origin: 146.732px 167.994px;" id="elg5qrwz8ivpq" class="animable"></path></g><defs>     <filter id="active" height="200%">         <feMorphology in="SourceAlpha" result="DILATED" operator="dilate" radius="2"></feMorphology>                <feFlood flood-color="#32DFEC" flood-opacity="1" result="PINK"></feFlood>        <feComposite in="PINK" in2="DILATED" operator="in" result="OUTLINE"></feComposite>        <feMerge>            <feMergeNode in="OUTLINE"></feMergeNode>            <feMergeNode in="SourceGraphic"></feMergeNode>        </feMerge>    </filter>    <filter id="hover" height="200%">        <feMorphology in="SourceAlpha" result="DILATED" operator="dilate" radius="2"></feMorphology>                <feFlood flood-color="#ff0000" flood-opacity="0.5" result="PINK"></feFlood>        <feComposite in="PINK" in2="DILATED" operator="in" result="OUTLINE"></feComposite>        <feMerge>            <feMergeNode in="OUTLINE"></feMergeNode>            <feMergeNode in="SourceGraphic"></feMergeNode>        </feMerge>            <feColorMatrix type="matrix" values="0   0   0   0   0                0   1   0   0   0                0   0   0   0   0                0   0   0   1   0 "></feColorMatrix>    </filter></defs></svg>